<svg width="19" height="19" viewBox="0 0 19 19" fill="none" xmlns="http://www.w3.org/2000/svg">
    <path fill-rule="evenodd" clip-rule="evenodd" d="M10.5924 10.4138C9.16047 11.8457 6.83886 11.8457 5.40694 10.4138C3.97502 8.98187 3.97502 6.66027 5.40694 5.22834C6.83886 3.79642 9.16047 3.79642 10.5924 5.22834C12.0243 6.66027 12.0243 8.98187 10.5924 10.4138ZM11.0328 11.7968C9.07255 13.2961 6.25696 13.1494 4.46413 11.3566C2.51151 9.40398 2.51151 6.23816 4.46413 4.28553C6.41675 2.33291 9.58258 2.33291 11.5352 4.28553C13.3279 6.07828 13.4747 8.8937 11.9755 10.8539L15.5423 14.4206L14.5994 15.3634L11.0328 11.7968Z" fill="#999999"/>
</svg>
